<?xml version="1.0" encoding="UTF-8" standalone="no"?>
<!DOCTYPE svg PUBLIC "-//W3C//DTD SVG 1.0//EN" "http://www.w3.org/TR/2001/PR-SVG-20010719/DTD/svg10.dtd">
<svg width="68cm" height="35cm" viewBox="176 175 1341 681" xmlns="http://www.w3.org/2000/svg" xmlns:xlink="http://www.w3.org/1999/xlink">
  <g>
    <rect style="fill: #ffffff" x="492.724" y="176" width="52.55" height="38"/>
    <rect style="fill: none; fill-opacity:0; stroke-width: 2; stroke: #000000" x="492.724" y="176" width="52.55" height="38"/>
    <text font-size="12.8" style="fill: #000000;text-anchor:middle;font-family:sans-serif;font-style:normal;font-weight:normal" x="518.999" y="198.9">
      <tspan x="518.999" y="198.9">sdae</tspan>
    </text>
  </g>
  <g>
    <rect style="fill: #ffffff" x="485.876" y="308" width="68.25" height="38"/>
    <rect style="fill: none; fill-opacity:0; stroke-width: 2; stroke: #000000" x="485.876" y="308" width="68.25" height="38"/>
    <text font-size="12.8" style="fill: #000000;text-anchor:middle;font-family:sans-serif;font-style:normal;font-weight:normal" x="520.001" y="330.9">
      <tspan x="520.001" y="330.9">plugins</tspan>
    </text>
  </g>
  <g>
    <path style="fill: none; fill-opacity:0; stroke-width: 2; stroke: #000000" d="M 519 214 C 489,277 545,246 523.641,298.97"/>
    <polygon style="fill: #000000" points="520.836,305.926 519.939,294.782 523.641,298.97 529.213,298.522 "/>
    <polygon style="fill: none; fill-opacity:0; stroke-width: 2; stroke: #000000" points="520.836,305.926 519.939,294.782 523.641,298.97 529.213,298.522 "/>
  </g>
  <g>
    <rect style="fill: #ffffff" x="383.574" y="421" width="64.85" height="38"/>
    <rect style="fill: none; fill-opacity:0; stroke-width: 2; stroke: #000000" x="383.574" y="421" width="64.85" height="38"/>
    <text font-size="12.8" style="fill: #000000;text-anchor:middle;font-family:sans-serif;font-style:normal;font-weight:normal" x="415.999" y="443.9">
      <tspan x="415.999" y="443.9">cas</tspan>
    </text>
  </g>
  <g>
    <path style="fill: none; fill-opacity:0; stroke-width: 2; stroke: #000000" d="M 485.876,327 A 82.5095,82.5095 0 1 0 374.658,436.216"/>
    <polygon style="fill: #000000" points="381.468,439.249 370.369,440.599 374.404,436.729 373.729,431.18 "/>
    <polygon style="fill: none; fill-opacity:0; stroke-width: 2; stroke: #000000" points="381.468,439.249 370.369,440.599 374.404,436.729 373.729,431.18 "/>
  </g>
  <g>
    <rect style="fill: #ffffff" x="569.374" y="419" width="103.25" height="38"/>
    <rect style="fill: none; fill-opacity:0; stroke-width: 2; stroke: #000000" x="569.374" y="419" width="103.25" height="38"/>
    <text font-size="12.8" style="fill: #000000;text-anchor:middle;font-family:sans-serif;font-style:normal;font-weight:normal" x="620.999" y="441.9">
      <tspan x="620.999" y="441.9">comparators</tspan>
    </text>
  </g>
  <g>
    <path style="fill: none; fill-opacity:0; stroke-width: 2; stroke: #000000" d="M 681.394,433.873 A 89.4138,89.4138 0 1 0 554.126,327"/>
    <polygon style="fill: #000000" points="674.696,437.159 682.081,428.765 681.645,434.338 685.842,438.03 "/>
    <polygon style="fill: none; fill-opacity:0; stroke-width: 2; stroke: #000000" points="674.696,437.159 682.081,428.765 681.645,434.338 685.842,438.03 "/>
  </g>
  <g>
    <rect style="fill: #ffffff" x="284.25" y="516" width="71.5" height="38"/>
    <rect style="fill: none; fill-opacity:0; stroke-width: 2; stroke: #000000" x="284.25" y="516" width="71.5" height="38"/>
    <text font-size="12.8" style="fill: #000000;text-anchor:middle;font-family:sans-serif;font-style:normal;font-weight:normal" x="320" y="538.9">
      <tspan x="320" y="538.9">cas1.py</tspan>
    </text>
  </g>
  <g>
    <rect style="fill: #ffffff" x="453.25" y="508" width="71.5" height="38"/>
    <rect style="fill: none; fill-opacity:0; stroke-width: 2; stroke: #000000" x="453.25" y="508" width="71.5" height="38"/>
    <text font-size="12.8" style="fill: #000000;text-anchor:middle;font-family:sans-serif;font-style:normal;font-weight:normal" x="489" y="530.9">
      <tspan x="489" y="530.9">cas2.py</tspan>
    </text>
  </g>
  <g>
    <rect style="fill: #ffffff" x="351" y="718" width="149.2" height="18"/>
    <rect style="fill: none; fill-opacity:0; stroke-width: 2; stroke: #000000" x="351" y="718" width="149.2" height="18"/>
    <text font-size="11.2" style="fill: #000000;text-anchor:middle;font-family:sans-serif;font-style:normal;font-weight:700" x="425.6" y="732">class CAS</text>
    <rect style="fill: #ffffff" x="351" y="736" width="149.2" height="20"/>
    <rect style="fill: none; fill-opacity:0; stroke-width: 2; stroke: #000000" x="351" y="736" width="149.2" height="20"/>
    <ellipse style="fill: none; fill-opacity:0; stroke-width: 0.2; stroke: #000000" cx="356" cy="746" rx="2" ry="2"/>
    <text font-size="12.8" style="fill: #000000;text-anchor:start;font-family:monospace;font-style:normal;font-weight:normal" x="360" y="752">def to_xml(file)</text>
  </g>
  <g>
    <rect style="fill: #ffffff" x="176.6" y="636.1" width="149.2" height="18"/>
    <rect style="fill: none; fill-opacity:0; stroke-width: 2; stroke: #000000" x="176.6" y="636.1" width="149.2" height="18"/>
    <text font-size="11.2" style="fill: #000000;text-anchor:middle;font-family:sans-serif;font-style:normal;font-weight:700" x="251.2" y="650.1">class CAS</text>
    <rect style="fill: #ffffff" x="176.6" y="654.1" width="149.2" height="20"/>
    <rect style="fill: none; fill-opacity:0; stroke-width: 2; stroke: #000000" x="176.6" y="654.1" width="149.2" height="20"/>
    <ellipse style="fill: none; fill-opacity:0; stroke-width: 0.2; stroke: #000000" cx="181.6" cy="664.1" rx="2" ry="2"/>
    <text font-size="12.8" style="fill: #000000;text-anchor:start;font-family:monospace;font-style:normal;font-weight:normal" x="185.6" y="670.1">def to_xml(file)</text>
  </g>
  <g>
    <line style="fill: none; fill-opacity:0; stroke-width: 2; stroke: #000000" x1="431.48" y1="702.049" x2="489" y2="546"/>
    <polygon style="fill: #000000" points="426.788,700.32 425.946,717.062 436.171,703.778 "/>
    <polygon style="fill: none; fill-opacity:0; stroke-width: 2; stroke: #000000" points="426.788,700.32 425.946,717.062 436.171,703.778 "/>
    <text font-size="12.7998" style="fill: #000000;text-anchor:middle;font-family:sans-serif;font-style:normal;font-weight:normal" x="498.406" y="623.5">implements</text>
  </g>
  <g>
    <line style="fill: none; fill-opacity:0; stroke-width: 2; stroke: #000000" x1="262.119" y1="623.07" x2="320" y2="554"/>
    <polygon style="fill: #000000" points="258.287,619.859 251.842,635.334 265.951,626.282 "/>
    <polygon style="fill: none; fill-opacity:0; stroke-width: 2; stroke: #000000" points="258.287,619.859 251.842,635.334 265.951,626.282 "/>
    <text font-size="12.7998" style="fill: #000000;text-anchor:middle;font-family:sans-serif;font-style:normal;font-weight:normal" x="244.406" y="591">implements</text>
  </g>
  <g>
    <path style="fill: none; fill-opacity:0; stroke-width: 2; stroke: #000000" d="M 383.574 449.5 C 357.406,494 250.406,455 312.678,509.582"/>
    <polygon style="fill: #000000" points="318.318,514.526 307.503,511.695 312.678,509.582 314.094,504.175 "/>
    <polygon style="fill: none; fill-opacity:0; stroke-width: 2; stroke: #000000" points="318.318,514.526 307.503,511.695 312.678,509.582 314.094,504.175 "/>
  </g>
  <g>
    <path style="fill: none; fill-opacity:0; stroke-width: 2; stroke: #000000" d="M 448.426 440 C 542.406,430 555.406,437 495.651,500.889"/>
    <polygon style="fill: #000000" points="490.527,506.367 493.707,495.648 495.651,500.889 501.01,502.479 "/>
    <polygon style="fill: none; fill-opacity:0; stroke-width: 2; stroke: #000000" points="490.527,506.367 493.707,495.648 495.651,500.889 501.01,502.479 "/>
  </g>
  <g>
    <rect style="fill: #ffffff" x="706.23" y="554" width="72.35" height="38"/>
    <rect style="fill: none; fill-opacity:0; stroke-width: 2; stroke: #000000" x="706.23" y="554" width="72.35" height="38"/>
    <text font-size="12.8" style="fill: #000000;text-anchor:middle;font-family:sans-serif;font-style:normal;font-weight:normal" x="742.405" y="576.9">
      <tspan x="742.405" y="576.9">base.py</tspan>
    </text>
  </g>
  <g>
    <path style="fill: none; fill-opacity:0; stroke-width: 2; stroke: #000000" d="M 595.188 457 C 496.406,532 829.406,482 732.35,548.497"/>
    <polygon style="fill: #000000" points="726.163,552.736 731.586,542.959 732.35,548.497 737.238,551.209 "/>
    <polygon style="fill: none; fill-opacity:0; stroke-width: 2; stroke: #000000" points="726.163,552.736 731.586,542.959 732.35,548.497 737.238,551.209 "/>
  </g>
  <g>
    <rect style="fill: #ffffff" x="576.406" y="649" width="187.7" height="18"/>
    <rect style="fill: none; fill-opacity:0; stroke-width: 2; stroke: #000000" x="576.406" y="649" width="187.7" height="18"/>
    <text font-size="11.2" style="fill: #000000;text-anchor:middle;font-family:sans-serif;font-style:normal;font-weight:700" x="670.256" y="663">class Comparator</text>
    <rect style="fill: #ffffff" x="576.406" y="667" width="187.7" height="20"/>
    <rect style="fill: none; fill-opacity:0; stroke-width: 2; stroke: #000000" x="576.406" y="667" width="187.7" height="20"/>
    <ellipse style="fill: none; fill-opacity:0; stroke-width: 0.2; stroke: #000000" cx="581.406" cy="677" rx="2" ry="2"/>
    <text font-size="12.8" style="fill: #000000;text-anchor:start;font-family:monospace;font-style:normal;font-weight:normal" x="585.406" y="683">def to_xml(file, cas)</text>
  </g>
  <g>
    <line style="fill: none; fill-opacity:0; stroke-width: 2; stroke: #000000" x1="683.595" y1="638.462" x2="742.406" y2="592"/>
    <polygon style="fill: #000000" points="680.496,634.538 671.041,648.38 686.695,642.385 "/>
    <polygon style="fill: none; fill-opacity:0; stroke-width: 2; stroke: #000000" points="680.496,634.538 671.041,648.38 686.695,642.385 "/>
    <text font-size="12.7998" style="fill: #000000;text-anchor:middle;font-family:sans-serif;font-style:normal;font-weight:normal" x="663.406" y="613">implements</text>
  </g>
  <g>
    <line style="fill: none; fill-opacity:0; stroke-width: 2; stroke: #000000" x1="512.802" y1="734.59" x2="576.406" y2="677"/>
    <polygon style="fill: #000000" points="509.446,730.883 500.941,745.329 516.158,738.296 "/>
    <polygon style="fill: none; fill-opacity:0; stroke-width: 2; stroke: #000000" points="509.446,730.883 500.941,745.329 516.158,738.296 "/>
    <text font-size="12.7998" style="fill: #000000;text-anchor:middle;font-family:sans-serif;font-style:normal;font-weight:normal" x="535.406" y="703">uses</text>
  </g>
  <g>
    <rect style="fill: #ffffff" x="871.13" y="550" width="124.55" height="38"/>
    <rect style="fill: none; fill-opacity:0; stroke-width: 2; stroke: #000000" x="871.13" y="550" width="124.55" height="38"/>
    <text font-size="12.8" style="fill: #000000;text-anchor:middle;font-family:sans-serif;font-style:normal;font-weight:normal" x="933.405" y="572.9">
      <tspan x="933.405" y="572.9">comparator1.py</tspan>
    </text>
  </g>
  <g>
    <path style="fill: none; fill-opacity:0; stroke-width: 2; stroke: #000000" d="M 646.812 457 C 775.406,521 899.406,477 901.887,540.271"/>
    <polygon style="fill: #000000" points="902.18,547.766 896.792,537.969 901.887,540.271 906.785,537.577 "/>
    <polygon style="fill: none; fill-opacity:0; stroke-width: 2; stroke: #000000" points="902.18,547.766 896.792,537.969 901.887,540.271 906.785,537.577 "/>
  </g>
  <g>
    <rect style="fill: #ffffff" x="838.406" y="762.256" width="203.1" height="18"/>
    <rect style="fill: none; fill-opacity:0; stroke-width: 2; stroke: #000000" x="838.406" y="762.256" width="203.1" height="18"/>
    <text font-size="11.2" style="fill: #000000;text-anchor:middle;font-family:sans-serif;font-style:normal;font-weight:700" x="939.956" y="776.256">class Comparator</text>
    <rect style="fill: #ffffff" x="838.406" y="780.256" width="203.1" height="68"/>
    <rect style="fill: none; fill-opacity:0; stroke-width: 2; stroke: #000000" x="838.406" y="780.256" width="203.1" height="68"/>
    <ellipse style="fill: none; fill-opacity:0; stroke-width: 0.2; stroke: #000000" cx="843.406" cy="790.256" rx="2" ry="2"/>
    <text font-size="12.8" style="fill: #000000;text-anchor:start;font-family:monospace;font-style:normal;font-weight:normal" x="847.406" y="796.256">def set_cas(cas1, cas2)</text>
    <ellipse style="fill: none; fill-opacity:0; stroke-width: 0.2; stroke: #000000" cx="843.406" cy="806.256" rx="2" ry="2"/>
    <text font-size="12.8" style="fill: #000000;text-anchor:start;font-family:monospace;font-style:normal;font-weight:normal" x="847.406" y="812.256">def compare(results)</text>
    <ellipse style="fill: none; fill-opacity:0; stroke-width: 0.2; stroke: #000000" cx="843.406" cy="822.256" rx="2" ry="2"/>
    <text font-size="12.8" style="fill: #000000;text-anchor:start;font-family:monospace;font-style:normal;font-weight:normal" x="847.406" y="828.256">def get_summary()</text>
    <ellipse style="fill: none; fill-opacity:0; stroke-width: 0.2; stroke: #000000" cx="843.406" cy="838.256" rx="2" ry="2"/>
    <text font-size="12.8" style="fill: #000000;text-anchor:start;font-family:monospace;font-style:normal;font-weight:normal" x="847.406" y="844.256">def get_details()</text>
  </g>
  <g>
    <line style="fill: none; fill-opacity:0; stroke-width: 2; stroke: #000000" x1="773.431" y1="672.214" x2="838.406" y2="771.256"/>
    <polygon style="fill: #000000" points="777.612,669.472 764.655,658.836 769.25,674.957 "/>
    <polygon style="fill: none; fill-opacity:0; stroke-width: 2; stroke: #000000" points="777.612,669.472 764.655,658.836 769.25,674.957 "/>
    <text font-size="12.7998" style="fill: #000000;text-anchor:middle;font-family:sans-serif;font-style:normal;font-weight:normal" x="840.508" y="713.128">inherits</text>
  </g>
  <g>
    <line style="fill: none; fill-opacity:0; stroke-width: 2; stroke: #000000" x1="942.331" y1="745.423" x2="964.544" y2="588"/>
    <polygon style="fill: #000000" points="937.38,744.724 940.096,761.266 947.282,746.121 "/>
    <polygon style="fill: none; fill-opacity:0; stroke-width: 2; stroke: #000000" points="937.38,744.724 940.096,761.266 947.282,746.121 "/>
    <text font-size="12.7998" style="fill: #000000;text-anchor:middle;font-family:sans-serif;font-style:normal;font-weight:normal" x="912.894" y="645.934">implements</text>
  </g>
  <g>
    <rect style="fill: #ffffff" x="824.302" y="248.024" width="68.3" height="38"/>
    <rect style="fill: none; fill-opacity:0; stroke-width: 2; stroke: #000000" x="824.302" y="248.024" width="68.3" height="38"/>
    <text font-size="12.8" style="fill: #000000;text-anchor:middle;font-family:sans-serif;font-style:normal;font-weight:normal" x="858.452" y="270.924">
      <tspan x="858.452" y="270.924">classes</tspan>
    </text>
  </g>
  <g>
    <path style="fill: none; fill-opacity:0; stroke-width: 2; stroke: #000000" d="M 545.274 195 C 683.994,195 685.582,267.024 814.566,267.024"/>
    <polygon style="fill: #000000" points="822.066,267.024 812.066,272.024 814.566,267.024 812.066,262.024 "/>
    <polygon style="fill: none; fill-opacity:0; stroke-width: 2; stroke: #000000" points="822.066,267.024 812.066,272.024 814.566,267.024 812.066,262.024 "/>
  </g>
  <g>
    <rect style="fill: #ffffff" x="947.674" y="338.534" width="84.6" height="38"/>
    <rect style="fill: none; fill-opacity:0; stroke-width: 2; stroke: #000000" x="947.674" y="338.534" width="84.6" height="38"/>
    <text font-size="12.8" style="fill: #000000;text-anchor:middle;font-family:sans-serif;font-style:normal;font-weight:normal" x="989.974" y="361.434">
      <tspan x="989.974" y="361.434">results.py</tspan>
    </text>
  </g>
  <g>
    <path style="fill: none; fill-opacity:0; stroke-width: 2; stroke: #000000" d="M 858.452,286.024 A 91.714,91.714 0 0 0 937.994,356.996"/>
    <polygon style="fill: #000000" points="945.438,357.528 935.425,362.502 937.938,357.509 935.451,352.502 "/>
    <polygon style="fill: none; fill-opacity:0; stroke-width: 2; stroke: #000000" points="945.438,357.528 935.425,362.502 937.938,357.509 935.451,352.502 "/>
  </g>
  <g>
    <rect style="fill: #ffffff" x="1036.44" y="480.47" width="480.3" height="18"/>
    <rect style="fill: none; fill-opacity:0; stroke-width: 2; stroke: #000000" x="1036.44" y="480.47" width="480.3" height="18"/>
    <text font-size="11.2" style="fill: #000000;text-anchor:middle;font-family:sans-serif;font-style:normal;font-weight:700" x="1276.59" y="494.47">class Results</text>
    <rect style="fill: #ffffff" x="1036.44" y="498.47" width="480.3" height="116"/>
    <rect style="fill: none; fill-opacity:0; stroke-width: 2; stroke: #000000" x="1036.44" y="498.47" width="480.3" height="116"/>
    <ellipse style="fill: none; fill-opacity:0; stroke-width: 0.2; stroke: #000000" cx="1041.44" cy="508.47" rx="2" ry="2"/>
    <text font-size="12.8" style="fill: #000000;text-anchor:start;font-family:monospace;font-style:normal;font-weight:normal" x="1045.44" y="514.47">def __init__(task, timestamp, probleminstance, results_dir)</text>
    <ellipse style="fill: none; fill-opacity:0; stroke-width: 0.2; stroke: #000000" cx="1041.44" cy="524.47" rx="2" ry="2"/>
    <text font-size="12.8" style="fill: #000000;text-anchor:start;font-family:monospace;font-style:normal;font-weight:normal" x="1045.44" y="530.47">def get_output(cas)</text>
    <ellipse style="fill: none; fill-opacity:0; stroke-width: 0.2; stroke: #000000" cx="1041.44" cy="540.47" rx="2" ry="2"/>
    <text font-size="12.8" style="fill: #000000;text-anchor:start;font-family:monospace;font-style:normal;font-weight:normal" x="1045.44" y="546.47">def set_probleminstance(probleminstance)</text>
    <ellipse style="fill: none; fill-opacity:0; stroke-width: 0.2; stroke: #000000" cx="1041.44" cy="556.47" rx="2" ry="2"/>
    <text font-size="12.8" style="fill: #000000;text-anchor:start;font-family:monospace;font-style:normal;font-weight:normal" x="1045.44" y="562.47">def set_comparator(comparator)</text>
    <ellipse style="fill: none; fill-opacity:0; stroke-width: 0.2; stroke: #000000" cx="1041.44" cy="572.47" rx="2" ry="2"/>
    <text font-size="12.8" style="fill: #000000;text-anchor:start;font-family:monospace;font-style:normal;font-weight:normal" x="1045.44" y="578.47">def start_comparison(cas1, cas2)</text>
    <ellipse style="fill: none; fill-opacity:0; stroke-width: 0.2; stroke: #000000" cx="1041.44" cy="588.47" rx="2" ry="2"/>
    <text font-size="12.8" style="fill: #000000;text-anchor:start;font-family:monospace;font-style:normal;font-weight:normal" x="1045.44" y="594.47">get_comparison_summary(cas1, cas2)</text>
    <ellipse style="fill: none; fill-opacity:0; stroke-width: 0.2; stroke: #000000" cx="1041.44" cy="604.47" rx="2" ry="2"/>
    <text font-size="12.8" style="fill: #000000;text-anchor:start;font-family:monospace;font-style:normal;font-weight:normal" x="1045.44" y="610.47">get_comparison_details(cas1, cas2)</text>
  </g>
  <g>
    <polyline style="fill: none; fill-opacity:0; stroke-width: 2; stroke: #000000" points="1156.52,618.942 1156.52,678.948 990.73,678.948 990.73,762.256 "/>
    <polyline style="fill: none; fill-opacity:0; stroke-width: 2; stroke: #000000" points="1164.52,632.706 1156.52,616.706 1148.52,632.706 "/>
    <text font-size="12.7998" style="fill: #000000;text-anchor:middle;font-family:monospace;font-style:normal;font-weight:normal" x="1073.62" y="675.948">uses result output</text>
    <text font-size="12.7998" style="fill: #000000;text-anchor:start;font-family:monospace;font-style:normal;font-weight:normal" x="1167.52" y="626.47"/>
    <text font-size="12.7998" style="fill: #000000;text-anchor:start;font-family:monospace;font-style:normal;font-weight:normal" x="994.73" y="758.256"/>
  </g>
  <g>
    <polyline style="fill: none; fill-opacity:0; stroke-width: 2; stroke: #000000" points="1396.67,614.47 1396.67,838.256 1045.98,838.256 "/>
    <polyline style="fill: none; fill-opacity:0; stroke-width: 2; stroke: #000000" points="1059.74,830.256 1043.74,838.256 1059.74,846.256 "/>
    <text font-size="12.7998" style="fill: #000000;text-anchor:middle;font-family:monospace;font-style:normal;font-weight:normal" x="1219.09" y="835.256">uses comparison results</text>
    <text font-size="12.7998" style="fill: #000000;text-anchor:start;font-family:monospace;font-style:normal;font-weight:normal" x="1400.67" y="626.47"/>
    <text font-size="12.7998" style="fill: #000000;text-anchor:start;font-family:monospace;font-style:normal;font-weight:normal" x="1061.51" y="835.256"/>
  </g>
  <g>
    <line style="fill: none; fill-opacity:0; stroke-width: 2; stroke: #000000" x1="1142.1" y1="471.47" x2="989.974" y2="376.534"/>
    <polygon style="fill: #000000" points="1139.45,475.711 1155.67,479.941 1144.74,467.228 "/>
    <polygon style="fill: none; fill-opacity:0; stroke-width: 2; stroke: #000000" points="1139.45,475.711 1155.67,479.941 1144.74,467.228 "/>
    <text font-size="12.7998" style="fill: #000000;text-anchor:middle;font-family:sans-serif;font-style:normal;font-weight:normal" x="1108.35" y="425.316">implements</text>
  </g>
</svg>
